<mxfile host="app.diagrams.net" modified="2024-06-05T12:41:18.605Z" agent="Mozilla/5.0 (Macintosh; Intel Mac OS X 10_15_7) AppleWebKit/537.36 (KHTML, like Gecko) Chrome/124.0.0.0 Safari/537.36" etag="kRO8F5knJl0p05QcGpce" version="24.4.2" type="github">
  <diagram name="Page-1" id="cd0jisqYJEJpqv4C9uFx">
    <mxGraphModel dx="2500" dy="1914" grid="0" gridSize="10" guides="1" tooltips="1" connect="1" arrows="1" fold="1" page="0" pageScale="1" pageWidth="850" pageHeight="1100" math="0" shadow="0">
      <root>
        <mxCell id="0" />
        <mxCell id="1" parent="0" />
        <mxCell id="mWhZr7geRBcS9N14BSLZ-3" value="" style="rounded=0;whiteSpace=wrap;html=1;" vertex="1" parent="1">
          <mxGeometry x="-1046" y="-304" width="480" height="458" as="geometry" />
        </mxCell>
        <mxCell id="mWhZr7geRBcS9N14BSLZ-5" value="&lt;h1 style=&quot;margin-top: 0px;&quot;&gt;&lt;br&gt;&lt;/h1&gt;" style="text;html=1;whiteSpace=wrap;overflow=hidden;rounded=0;" vertex="1" parent="1">
          <mxGeometry x="-950" y="-244" width="180" height="120" as="geometry" />
        </mxCell>
        <mxCell id="mWhZr7geRBcS9N14BSLZ-6" value="&lt;h1 style=&quot;margin-top: 0px;&quot;&gt;On-Demand Educational Service&lt;/h1&gt;&lt;p&gt;1. Functional Requirements: Target Audience &amp;amp; Educational Goals&lt;/p&gt;&lt;p&gt;2.&amp;nbsp;&lt;/p&gt;" style="text;html=1;whiteSpace=wrap;overflow=hidden;rounded=0;" vertex="1" parent="1">
          <mxGeometry x="-1012" y="-272" width="446" height="256" as="geometry" />
        </mxCell>
      </root>
    </mxGraphModel>
  </diagram>
</mxfile>
